# xmcd
#
# Track frame offsets:
#	150
#	19624
#	36006
#	50831
#	69841
#	89367
#	101145
#	114216
#	131553
#	146320
#
# Disc length: 2191 seconds
#
# Revision: 1
# Processed by: cddbd v1.5.2PL0 Copyright (c) Steve Scherf et al.
# Submitted via: audiograbber 1.83.01
#
DISCID=7e088d0a
DTITLE=Various Artist - FH-7103 Forever Hits/Great Country Groups
DYEAR=1900
DGENRE=Country
TTITLE0=Alabama - Mountain Music
TTITLE1=Alabama - Feels So Right
TTITLE2=Alabama - Love In The First Degree
TTITLE3=Alabama - You've Got The Touch
TTITLE4=Brooks and Dunn - You're Gonna Miss Me When I'm Gone
TTITLE5=Brooks and Dunn - Beer Thirty
TTITLE6=Brooks and Dunn - Hard Workin' Man
TTITLE7=Books and Dunn - She Used To Be Mine
TTITLE8=Brooks and Dunn - Boot Scootin' Boogie
TTITLE9=Brooks and Dunn - Neon Moon
EXTD=
EXTT0=
EXTT1=
EXTT2=
EXTT3=
EXTT4=
EXTT5=
EXTT6=
EXTT7=
EXTT8=
EXTT9=
PLAYORDER=
